Coordinates
version=1
nRows=13
nColumns=22
inDegrees=yes

Units are S.I. units (second, meters, Newtons, ...)
If the header above contains a line with 'inDegrees', this indicates whether rotational values are in degrees (yes) or radians (no).

endheader
time	pelvis_tilt	pelvis_list	pelvis_rotation	pelvis_tx	pelvis_ty	pelvis_tz	hip_flexion_r	hip_adduction_r	hip_rotation_r	knee_angle_r	ankle_angle_r	subtalar_angle_r	hip_flexion_l	hip_adduction_l	hip_rotation_l	knee_angle_l	ankle_angle_l	subtalar_angle_l	lumbar_extension	lumbar_bending	lumbar_rotation
      3.85000000	     -5.92997830	     -2.66822061	      0.78324356	     -0.36550079	      0.94808730	     -0.22505227	      7.90843346	      1.09771340	     -2.19158580	    -32.16068251	     12.11363985	      2.27884535	     19.89566865	     -1.61692726	     -4.88763439	    -23.14150790	      7.63324216	     -6.93144281	     -6.24005245	      0.40263457	      1.95878995
      3.86000000	     -6.08652583	     -2.57186217	      0.62454272	     -0.36997502	      0.94764847	     -0.22291643	      7.38546695	      1.10230210	     -2.33833471	    -30.62610943	     12.75643119	      2.33493332	     20.36598455	     -1.67653946	     -4.96769440	    -23.18188149	      7.36191048	     -6.88442238	     -6.11395172	      0.25709166	      2.15965329
      3.87000000	     -6.12536393	     -2.48388485	      0.48676844	     -0.37436130	      0.94739011	     -0.22077799	      6.76661821	      1.11569958	     -2.53036734	    -29.08771467	     13.36408061	      2.49860444	     20.67990957	     -1.74557481	     -5.03557435	    -23.17326038	      7.12960775	     -6.86206409	     -6.12262271	      0.12746801	      2.32821712
      3.88000000	     -6.24301800	     -2.39188291	      0.34149513	     -0.37887646	      0.94696135	     -0.21857014	      6.33964832	      1.13844772	     -2.70227760	    -27.67583191	     13.96314863	      2.51285120	     21.12059184	     -1.82531505	     -5.13037001	    -23.22352728	      6.84846038	     -6.78930353	     -6.05175196	     -0.00938495	      2.49189095
      3.89000000	     -6.31533718	     -2.31198933	      0.21087083	     -0.38338671	      0.94659402	     -0.21634349	      5.92579353	      1.18293129	     -2.89024821	    -26.33584410	     14.50660628	      2.50898353	     21.50715510	     -1.92042499	     -5.21588069	    -23.25957906	      6.58202189	     -6.70143573	     -6.03635808	     -0.12952026	      2.63169002
      3.90000000	     -6.36307597	     -2.23671390	      0.08625080	     -0.38791406	      0.94625996	     -0.21411590	      5.55648802	      1.23970729	     -3.08082249	    -25.09169663	     14.98747976	      2.47593918	     21.86407469	     -2.02325829	     -5.30495561	    -23.28549209	      6.31327118	     -6.58997639	     -6.05306752	     -0.23686140	      2.75489791
      3.91000000	     -6.34792378	     -2.17691486	     -0.02517596	     -0.39240024	      0.94604000	     -0.21185685	      5.16898102	      1.32424566	     -3.28478460	    -23.92073461	     15.38099662	      2.35786731	     22.12649345	     -2.14367987	     -5.38031524	    -23.26397405	      6.07294591	     -6.39971887	     -6.14058396	     -0.32930693	      2.86261486
      3.92000000	     -6.38875750	     -2.10698924	     -0.14510567	     -0.39700275	      0.94570758	     -0.20957593	      4.94169731	      1.40764646	     -3.44868516	    -22.90799123	     15.76689572	      2.27131909	     22.48198408	     -2.26461360	     -5.49154341	    -23.28957286	      5.77768452	     -6.25534315	     -6.17282098	     -0.43115608	      2.96173467
      3.93000000	     -6.37414055	     -2.06064683	     -0.25593212	     -0.40155595	      0.94548699	     -0.20728897	      4.68769051	      1.52569529	     -3.61408231	    -21.94935056	     16.04422750	      1.99120968	     22.74506700	     -2.40773714	     -5.58300408	    -23.26040487	      5.54302203	     -5.96706614	     -6.26364328	     -0.50255635	      3.04518673
      3.94000000	     -6.39844514	     -2.00927009	     -0.37616486	     -0.40619808	      0.94518864	     -0.20499326	      4.56263876	      1.63991967	     -3.76043145	    -21.13797335	     16.34918906	      1.89063454	     23.06496768	     -2.55024955	     -5.68630379	    -23.25000534	      5.23003063	     -5.81535544	     -6.31569537	     -0.57878993	      3.14083849
      3.95000000	     -6.39435510	     -1.97608243	     -0.49663218	     -0.41080705	      0.94495066	     -0.20268296	      4.43636843	      1.78306222	     -3.88823425	    -20.37850580	     16.56278325	      1.51220289	     23.32893666	     -2.71382179	     -5.78989743	    -23.19914019	      4.99279113	     -5.48163035	     -6.39460750	     -0.63272209	      3.22700951
      3.96000000	     -6.40498567	     -1.94062881	     -0.61528241	     -0.41544541	      0.94468325	     -0.20040203	      4.38064959	      1.91944902	     -4.00787223	    -19.71796129	     16.80036006	      1.44696880	     23.60595252	     -2.87119855	     -5.89194619	    -23.13807965	      4.67232989	     -5.34959492	     -6.45593467	     -0.68374535	      3.29865443
      3.97000000	     -6.40258681	     -1.92915892	     -0.74621845	     -0.42010346	      0.94443749	     -0.19807444	      4.34132843	      2.09577537	     -4.05712528	    -19.10723862	     16.93992763	      1.03668528	     23.87046332	     -3.06218491	     -5.98730329	    -23.08351913	      4.41753214	     -4.97548638	     -6.53397374	     -0.71280346	      3.40826746
